<svg xmlns="http://www.w3.org/2000/svg" width="642" height="374.041"><defs><linearGradient id="a" x1=".032" y1=".266" x2=".834" y2=".581" gradientUnits="objectBoundingBox"><stop offset="0" stop-color="#09005d"/><stop offset="1" stop-color="#1a0f91"/></linearGradient></defs><g data-name="404-flow"><g data-name="Group 2401" opacity=".2"><path data-name="Path 2879" d="M490.081 247.618c-6.143-34.323-35.688-64.356-70.5-67.184-18.917-1.56-38.029 4.388-56.945 2.145a66.382 66.382 0 0 1-41.44-21.838c-15.6-17.747-20.867-43-37.346-59.871-22.72-23.3-62.5-23.695-90.2-6.533s-44.464 48.072-52.07 79.665l-.293 9.653c-1.658 32.861 6.923 70.987 26.035 100.239 19.307 29.643 31.983 41.831 67.184 63.186 29.838 18.137 88.343 26.035 123.252 26.913s70.792-9.556 97.022-32.568c26.233-23.113 41.444-59.484 35.301-93.807z" fill="#7ef5cb"/><g data-name="Group 2400"><path data-name="Path 2880" d="M490.081 247.618c-6.143-34.323-35.688-64.356-70.5-67.184-18.917-1.56-38.029 4.388-56.945 2.145a66.382 66.382 0 0 1-41.44-21.838c-15.6-17.747-20.867-43-37.346-59.871-22.72-23.3-62.5-23.695-90.2-6.533s-44.464 48.072-52.07 79.665l-.293 9.653c-1.658 32.861 6.923 70.987 26.035 100.239 19.307 29.643 31.983 41.831 67.184 63.186 29.838 18.137 88.343 26.035 123.252 26.913s70.792-9.556 97.022-32.568c26.233-23.113 41.444-59.484 35.301-93.807z" fill="#7ef5cb" opacity=".8"/></g></g><g data-name="Group 2432"><g data-name="Group 2402"><path data-name="Path 2881" d="M389.647 238.551c.293 33.543-7.021 59.286-21.94 77.032s-35.493 26.717-61.431 27.01c-26.132.293-46.9-8.386-62.308-25.84s-23.3-43-23.6-76.545l-.582-59.09q-.439-50.168 21.94-77.032 22.378-26.766 61.626-27.205 39.052-.439 62.113 26.035 23.11 26.327 23.6 76.545zm-43.782-65.331q-.293-31.739-11.116-46.8c-7.216-10.043-17.552-15.114-31.2-14.919-13.554.1-23.89 5.265-30.813 15.5s-10.336 25.937-10.141 47.1l.683 71.767c.2 21.257 3.9 36.956 11.214 47.1 7.216 10.141 17.649 15.114 31.3 15.016q20.331-.146 30.715-15.5c6.923-10.238 10.238-26.035 10.043-47.389z" fill="#e8505b"/></g><g data-name="Group 2403"><path data-name="Path 2882" d="M389.647 238.551c.293 33.543-7.021 59.286-21.94 77.032s-35.493 26.717-61.431 27.01c-26.132.293-46.9-8.386-62.308-25.84s-23.3-43-23.6-76.545l-.582-59.09q-.439-50.168 21.94-77.032 22.378-26.766 61.626-27.205 39.052-.439 62.113 26.035 23.11 26.327 23.6 76.545zm-43.782-65.331q-.293-31.739-11.116-46.8c-7.216-10.043-17.552-15.114-31.2-14.919-13.554.1-23.89 5.265-30.813 15.5s-10.336 25.937-10.141 47.1l.683 71.767c.2 21.257 3.9 36.956 11.214 47.1 7.216 10.141 17.649 15.114 31.3 15.016q20.331-.146 30.715-15.5c6.923-10.238 10.238-26.035 10.043-47.389z" fill="#00916f"/></g><g data-name="Group 2404"><path data-name="Path 2883" d="M414.414 238.258c.293 33.543-7.021 59.286-21.94 77.032s-35.493 26.717-61.431 27.01c-26.132.293-46.9-8.386-62.308-25.84s-23.3-43-23.6-76.545l-.585-59.091q-.439-50.168 21.94-77.032 22.378-26.766 61.626-27.205 39.052-.439 62.113 26.035 23.11 26.327 23.6 76.545zm-43.684-65.234q-.293-31.739-11.116-46.8c-7.216-10.043-17.552-15.114-31.2-14.919-13.554.1-23.89 5.265-30.813 15.5s-10.336 25.937-10.141 47.1l.683 71.767c.2 21.257 3.9 36.956 11.214 47.1 7.216 10.141 17.649 15.114 31.3 15.016q20.331-.146 30.715-15.5c6.923-10.238 10.238-26.035 10.043-47.389z" fill="#50ea9a"/></g><g data-name="Group 2405"><path data-name="Path 2884" d="M244.747 184.335c.1.1-5.753 2.438-12.871 5.07-7.118 2.73-12.969 4.778-13.066 4.68s5.753-2.438 12.871-5.07c7.118-2.73 12.969-4.78 13.066-4.68z" fill="#f8f8f8"/></g><g data-name="Group 2406"><path data-name="Path 2885" d="M246.112 207.64c.1.1-5.753 2.438-12.871 5.07-7.118 2.73-12.969 4.778-13.066 4.68s5.753-2.438 12.871-5.07c7.216-2.73 13.066-4.78 13.066-4.68z" fill="#f8f8f8"/></g><g data-name="Group 2407"><path data-name="Path 2886" d="M247.575 231.043c.1.1-5.753 2.438-12.871 5.07-7.118 2.73-12.969 4.778-13.066 4.68s5.753-2.438 12.871-5.07c7.118-2.73 12.969-4.88 13.066-4.68z" fill="#f8f8f8"/></g><g data-name="Group 2408"><path data-name="Path 2887" d="M249.037 254.347c.1.1-5.753 2.438-12.871 5.07-7.118 2.73-12.969 4.778-13.066 4.68s5.753-2.438 12.871-5.07c7.118-2.73 12.969-4.78 13.066-4.68z" fill="#f8f8f8"/></g><g data-name="Group 2409"><path data-name="Path 2888" d="M250.406 277.652a9.019 9.019 0 0 1-.878.488c-.585.292-1.463.585-2.535 1.073-2.145.878-5.07 1.95-8.288 3.218s-6.241 2.34-8.386 3.023c-1.073.39-1.95.683-2.535.878s-.975.293-.975.293a9.015 9.015 0 0 1 .878-.488c.585-.293 1.463-.585 2.535-1.073 2.145-.878 5.07-1.95 8.288-3.218s6.241-2.34 8.386-3.023c1.073-.39 1.95-.683 2.535-.878.675-.193.975-.293.975-.293z" fill="#f8f8f8"/></g><g data-name="Group 2410"><path data-name="Path 2889" d="M257.131 299.006a13.508 13.508 0 0 1-2.925 1.268c-1.853.78-4.388 1.755-7.216 2.828s-5.461 2.048-7.313 2.633a13.09 13.09 0 0 1-3.12.975 13.51 13.51 0 0 1 2.925-1.268c1.853-.78 4.388-1.755 7.216-2.828s5.461-2.048 7.313-2.633a22.689 22.689 0 0 1 3.12-.975z" fill="#f8f8f8"/></g><g data-name="Group 2411"><path data-name="Path 2890" d="M271.368 318.606a15.846 15.846 0 0 1-2.633 1.17c-1.658.683-3.9 1.56-6.436 2.535s-4.875 1.755-6.533 2.34-2.73.878-2.73.878a15.847 15.847 0 0 1 2.633-1.17c1.658-.683 3.9-1.56 6.436-2.535s4.875-1.755 6.533-2.34a15.069 15.069 0 0 1 2.73-.878z" fill="#f8f8f8"/></g><g data-name="Group 2412"><path data-name="Path 2891" d="M295.063 331.478a15.847 15.847 0 0 1-2.633 1.17c-1.658.683-3.9 1.56-6.436 2.535s-4.875 1.755-6.533 2.34-2.73.878-2.73.878a15.851 15.851 0 0 1 2.633-1.17c1.658-.683 3.9-1.56 6.436-2.535s4.875-1.755 6.533-2.34a9.087 9.087 0 0 1 2.73-.878z" fill="#f8f8f8"/></g><g data-name="Group 2413"><path data-name="Path 2892" d="M366.536 281.65c.1.1-7.313 3.608-16.577 7.7-9.166 4.1-16.674 7.411-16.772 7.216-.1-.1 7.313-3.608 16.577-7.7s16.772-7.316 16.772-7.216z" fill="#91e89c"/></g><g data-name="Group 2414"><path data-name="Path 2893" d="M371.414 261.661c.1.1-6.046 3.023-13.651 6.436s-13.846 6.046-13.846 5.948c-.1-.1 6.046-3.023 13.651-6.436s13.746-6.048 13.846-5.948z" fill="#91e89c"/></g><g data-name="Group 2415"><path data-name="Path 2894" d="M373.657 239.234c.1.1-6.046 3.023-13.651 6.436s-13.846 6.046-13.846 5.948c-.1-.1 6.046-3.023 13.651-6.436s13.746-6.148 13.846-5.948z" fill="#91e89c"/></g><g data-name="Group 2416"><path data-name="Path 2895" d="M375.9 216.709c.1.1-6.046 3.023-13.651 6.436s-13.846 6.046-13.846 5.948c-.1-.1 6.046-3.023 13.651-6.436s13.746-6.048 13.846-5.948z" fill="#91e89c"/></g><g data-name="Group 2417"><path data-name="Path 2896" d="M378.142 194.282c.1.1-6.046 3.023-13.651 6.436s-13.846 6.046-13.846 5.948c-.1-.1 6.046-3.023 13.651-6.436s13.746-6.048 13.846-5.948z" fill="#91e89c"/></g><g data-name="Group 2418"><path data-name="Path 2897" d="M373.657 174.293c.1.1-6.046 3.023-13.651 6.436s-13.846 6.046-13.846 5.948c-.1-.1 6.046-3.023 13.651-6.436s13.746-6.048 13.846-5.948z" fill="#91e89c"/></g><g data-name="Group 2419"><path data-name="Path 2898" d="M373.657 152.743c.1.1-6.046 3.023-13.651 6.436s-13.846 6.046-13.846 5.948c-.1-.1 6.046-3.023 13.651-6.436s13.746-6.048 13.846-5.948z" fill="#91e89c"/></g><g data-name="Group 2420"><path data-name="Path 2899" d="M371.414 132.461c.1.1-6.046 3.023-13.651 6.436s-13.846 6.046-13.846 5.948c-.1-.1 6.046-3.023 13.651-6.436s13.746-6.048 13.846-5.948z" fill="#91e89c"/></g><g data-name="Group 2421"><path data-name="Path 2900" d="M352.106 118.322a72.916 72.916 0 0 1-8.288 4c-4.583 2.048-8.386 3.705-8.483 3.51a72.909 72.909 0 0 1 8.288-4c4.68-2.047 8.483-3.61 8.483-3.51z" fill="#f8f8f8"/></g><g data-name="Group 2422"><path data-name="Path 2901" d="M341.867 109.742a72.913 72.913 0 0 1-8.288 4 87.932 87.932 0 0 1-8.483 3.51 72.909 72.909 0 0 1 8.288-4c4.582-2.048 8.385-3.71 8.483-3.51z" fill="#f8f8f8"/></g><g data-name="Group 2423"><path data-name="Path 2902" d="M245.82 156.058c.1.1-5.753 2.438-12.871 5.07-7.118 2.73-12.969 4.778-13.066 4.68s5.753-2.438 12.871-5.07c7.118-2.73 12.969-4.78 13.066-4.68z" fill="#f8f8f8"/></g><g data-name="Group 2424"><path data-name="Path 2903" d="M252.939 127.001c.1.1-6.241 2.633-13.944 5.558-7.8 2.925-14.139 5.168-14.139 5.07-.1-.1 6.241-2.633 13.944-5.558 7.8-3.023 14.139-5.27 14.139-5.07z" fill="#f8f8f8"/></g><g data-name="Group 2425"><path data-name="Path 2904" d="M271.758 98.137c.1.1-7.9 3.218-17.747 6.923s-17.844 6.533-17.844 6.436c-.1-.1 7.9-3.218 17.747-6.923 9.753-3.608 17.746-6.536 17.844-6.436z" fill="#f8f8f8"/></g><g data-name="Group 2426"><path data-name="Path 2905" d="M410.221 281.942a1.538 1.538 0 0 1-.39-.1c-.293-.1-.683-.293-1.17-.488s-1.17-.293-1.95-.585a21.312 21.312 0 0 0-2.73-.293c-4.193-.293-10.434 1.268-16.479 5.753a44.976 44.976 0 0 0-8.678 8.581c-2.828 3.413-5.558 7.313-8.678 11.214a54.3 54.3 0 0 1-11.214 10.921 42.012 42.012 0 0 1-15.5 6.338 38.772 38.772 0 0 1-16.775-.582 77.717 77.717 0 0 1-14.724-5.461c-4.485-2.145-8.776-4.193-12.774-6.046a71.473 71.473 0 0 0-11.6-4 43 43 0 0 0-10.043-1.17 27.416 27.416 0 0 0-7.606 1.073 25.163 25.163 0 0 0-4.485 1.755 14.92 14.92 0 0 1-1.073.585 1.068 1.068 0 0 0-.39.2 1.068 1.068 0 0 1 .39-.2c.293-.2.585-.39 1.073-.683a24.023 24.023 0 0 1 4.485-1.853 31.208 31.208 0 0 1 7.606-1.17 43.29 43.29 0 0 1 10.141 1.073 71.526 71.526 0 0 1 11.7 3.9c4.1 1.755 8.288 3.9 12.871 5.948a80.969 80.969 0 0 0 14.626 5.363 41.082 41.082 0 0 0 16.577.585 38.8 38.8 0 0 0 15.309-6.241 52.959 52.959 0 0 0 11.116-10.726c3.12-3.9 5.851-7.7 8.678-11.214a52.484 52.484 0 0 1 8.776-8.678c6.143-4.485 12.481-6.046 16.674-5.656a22.014 22.014 0 0 1 2.828.39 16.281 16.281 0 0 1 1.95.585c.488.2.878.39 1.17.488.191.394.289.394.289.394z" fill="#f8f8f8"/></g><g data-name="Group 2427"><path data-name="Path 2906" d="M416.363 216.904c0 .1-.683.1-1.853.585a17.449 17.449 0 0 0-4.68 2.535c-1.853 1.268-3.9 3.12-6.241 4.973a49.178 49.178 0 0 1-8.386 5.168 48.1 48.1 0 0 1-17.259 4.485c-1.17.1-2.145.1-3.12.1-.878 0-1.658-.1-2.34-.1-.585-.1-1.073-.1-1.463-.2a1.183 1.183 0 0 1-.488-.1h.488a8.422 8.422 0 0 1 1.463.1h2.34a16.79 16.79 0 0 0 3.023-.2 47.622 47.622 0 0 0 17.064-4.583 42.619 42.619 0 0 0 8.288-5.07c2.34-1.853 4.388-3.608 6.338-4.875a18.726 18.726 0 0 1 4.875-2.438 4.811 4.811 0 0 1 1.463-.293 1.707 1.707 0 0 1 .488-.087z" fill="#91e89c"/></g><g data-name="Group 2428"><path data-name="Path 2907" d="M289.016 239.522a1.707 1.707 0 0 1-.488-.1 15.3 15.3 0 0 0-1.56-.293 28.66 28.66 0 0 1-5.265-2.243 49.386 49.386 0 0 1-6.826-4.973c-2.438-2.048-5.07-4.29-8.093-6.436a27.051 27.051 0 0 0-9.263-4.193 28.547 28.547 0 0 0-8.288-.78 22.8 22.8 0 0 0-5.558.878 11.046 11.046 0 0 1-2.048.488 4.1 4.1 0 0 1 .488-.2c.292-.1.78-.293 1.463-.488a22.168 22.168 0 0 1 5.656-.975 25.61 25.61 0 0 1 8.386.683 26.424 26.424 0 0 1 9.458 4.29c3.023 2.145 5.656 4.388 8.093 6.436a60.727 60.727 0 0 0 6.728 5.07 28.42 28.42 0 0 0 5.07 2.438c1.365.11 2.047.305 2.047.398z" fill="#91e89c"/></g><g data-name="Group 2429"><path data-name="Path 2908" d="M289.211 147.284s-.585.2-1.658.585a16.281 16.281 0 0 1-1.95.585 17.621 17.621 0 0 1-2.633.585q-1.463.293-3.218.585c-1.17.2-2.438.293-3.705.39a50.842 50.842 0 0 1-8.581-.1 69.678 69.678 0 0 1-8.483-1.463c-1.268-.39-2.438-.683-3.608-1.073-1.073-.39-2.145-.78-3.023-1.17-.975-.39-1.755-.78-2.438-1.073a16.038 16.038 0 0 1-1.853-.975l-1.461-.876a13.35 13.35 0 0 1 1.56.683 11.1 11.1 0 0 0 1.853.878c.683.293 1.56.683 2.438 1.073a21.83 21.83 0 0 0 3.023 1.073c1.073.39 2.34.683 3.608 1.073a64.916 64.916 0 0 0 8.386 1.463 49.7 49.7 0 0 0 8.483.1c1.268-.1 2.535-.2 3.705-.39a28.079 28.079 0 0 0 3.218-.488q1.463-.293 2.633-.585a18.787 18.787 0 0 0 1.95-.488c1.072-.199 1.754-.392 1.754-.392z" fill="#f8f8f8"/></g><g data-name="Group 2430"><path data-name="Path 2909" d="M410.806 147.087l-.39-.2c-.293-.2-.683-.39-1.17-.683a10.659 10.659 0 0 0-1.853-.975c-.683-.39-1.56-.78-2.438-1.17l-1.463-.585c-.488-.2-1.073-.39-1.658-.585-1.073-.39-2.34-.683-3.608-1.073a39.84 39.84 0 0 0-8.581-.975 38.7 38.7 0 0 0-8.581.878c-1.268.293-2.535.585-3.705.975-.585.2-1.073.293-1.658.488l-1.463.585c-.975.293-1.755.78-2.535 1.073a10.658 10.658 0 0 0-1.853.975 6.41 6.41 0 0 1-1.17.585 1.067 1.067 0 0 0-.39.2 2.883 2.883 0 0 1 .39-.293c.293-.2.683-.39 1.073-.683.488-.293 1.073-.683 1.755-1.073a14.162 14.162 0 0 1 2.438-1.17l1.463-.585c.488-.2 1.073-.39 1.658-.585a34 34 0 0 1 3.705-.975 41.177 41.177 0 0 1 8.776-.878 39.867 39.867 0 0 1 8.678 1.073c1.268.39 2.535.683 3.705 1.073.585.2 1.073.39 1.658.585.488.2.975.488 1.463.683a18.578 18.578 0 0 1 2.438 1.268c.683.39 1.268.78 1.755 1.073a10.211 10.211 0 0 1 1.073.78c.39.097.585.194.488.194z" fill="#91e89c"/></g><g data-name="Group 2431"><path data-name="Path 2910" d="M351.227 80.88a2.163 2.163 0 0 1-.683.39 18.546 18.546 0 0 1-2.048 1.073c-1.755.975-4.388 2.34-7.7 4-6.533 3.218-15.7 7.606-26.62 10.433a70.421 70.421 0 0 1-15.6 2.145 55.271 55.271 0 0 1-12.774-1.073 47.846 47.846 0 0 1-8.288-2.535c-.975-.39-1.658-.78-2.145-.975s-.78-.39-.683-.39c0 0 .293.1.78.293a18.526 18.526 0 0 0 2.145.878 42.52 42.52 0 0 0 8.288 2.34 62 62 0 0 0 12.676.975 76.714 76.714 0 0 0 15.5-2.145c10.823-2.73 19.989-7.118 26.522-10.238 3.218-1.56 5.851-2.925 7.8-3.8.878-.39 1.56-.78 2.145-1.073.393-.198.685-.398.685-.298z" fill="#f8f8f8"/></g></g><g data-name="Group 2458"><g data-name="Group 2433"><path data-name="Path 2911" d="M155.527 250.739l32.568 1.463-1.463 34.518-32.568-1.463-2.535 57.433-42.9-1.853 2.535-57.433L.39 278.531l.1-26.327L118.474 82.731l44.269 1.95zM43.29 245.864l69.231 3.023 4.583-104.725-1.073-.39-3.9 7.508z" fill="#e8505b"/></g><g data-name="Group 2434"><path data-name="Path 2912" d="M155.527 250.739l32.568 1.463-1.463 34.518-32.568-1.463-2.535 57.433-42.9-1.853 2.535-57.433L.39 278.531l.1-26.327L118.474 82.731l44.269 1.95zM43.29 245.864l69.231 3.023 4.583-104.725-1.073-.39-3.9 7.508z" fill="#00916f"/></g><g data-name="Group 2435"><path data-name="Path 2913" d="M182.732 251.91l32.568 1.463-1.463 34.518-32.568-1.463-2.535 57.433-42.9-1.853 2.535-57.433-110.774-4.876.1-26.327L145.679 83.999l44.269 1.95zm-112.137-4.876l69.231 3.023 4.583-104.725-1.073-.39-3.9 7.508z" fill="#50ea9a"/></g><g data-name="Group 2457"><g data-name="Group 2436"><path data-name="Path 2914" d="M28.278 258.442s-.39.2-1.073.585-1.658.878-2.925 1.463c-2.535 1.17-6.046 2.73-9.946 4.388s-7.508 3.023-10.043 4c-1.268.488-2.34.878-3.12 1.17a12.237 12.237 0 0 1-1.17.39s.39-.2 1.073-.488c.78-.39 1.853-.78 3.023-1.268a756.66 756.66 0 0 0 10.043-4.193c3.8-1.658 7.313-3.12 9.946-4.29 1.17-.488 2.243-.975 3.023-1.268a6.578 6.578 0 0 1 1.169-.489z" fill="#f8f8f8"/></g><g data-name="Group 2437"><path data-name="Path 2915" d="M44.172 229.287s-.488.293-1.463.78-2.34 1.17-4.1 1.95c-3.51 1.56-8.288 3.705-13.651 5.948s-10.238 4.29-13.846 5.656c-1.755.683-3.218 1.268-4.193 1.56-.975.39-1.56.585-1.56.488a11.257 11.257 0 0 1 1.463-.683 80.551 80.551 0 0 1 4.193-1.755c3.608-1.463 8.386-3.51 13.749-5.753s10.141-4.29 13.749-5.851c1.658-.683 3.12-1.365 4.193-1.755.881-.39 1.466-.685 1.466-.585z" fill="#f8f8f8"/></g><g data-name="Group 2438"><path data-name="Path 2916" d="M63.479 203.252a17.31 17.31 0 0 1-1.56.78 74.637 74.637 0 0 1-4.29 1.95c-3.608 1.56-8.678 3.705-14.236 5.948s-10.726 4.29-14.431 5.656c-1.853.683-3.315 1.268-4.388 1.56-1.073.39-1.658.585-1.658.488 0 0 .585-.293 1.56-.683q1.609-.731 4.388-1.755c3.705-1.463 8.776-3.51 14.334-5.753s10.628-4.29 14.334-5.851c1.755-.683 3.218-1.365 4.388-1.755.974-.39 1.559-.685 1.559-.585z" fill="#f8f8f8"/></g><g data-name="Group 2439"><path data-name="Path 2917" d="M141.096 233.285s-.39.2-1.073.585c-.683.293-1.755.78-2.925 1.365-2.535 1.17-6.046 2.633-9.946 4.193s-7.508 2.925-10.043 3.9a30.244 30.244 0 0 1-3.12 1.073c-.78.2-1.17.39-1.17.293 0 0 .39-.2 1.073-.488.78-.293 1.853-.78 3.023-1.268 2.633-1.073 6.143-2.438 10.043-4 3.8-1.56 7.313-3.023 9.946-4.1 1.17-.488 2.243-.878 3.023-1.268z" fill="#f8f8f8"/></g><g data-name="Group 2440"><path data-name="Path 2918" d="M137.978 286.916s-.39.2-1.073.585c-.683.293-1.658.78-2.828 1.365-2.438 1.17-5.851 2.633-9.653 4.193s-7.216 2.925-9.751 3.9a29.943 29.943 0 0 1-3.023 1.073c-.683.2-1.073.39-1.17.293 0 0 .39-.2 1.073-.488.78-.293 1.755-.78 2.925-1.268 2.633-1.073 5.948-2.438 9.751-4 3.705-1.56 7.118-3.023 9.653-4.1 1.17-.488 2.145-.878 2.925-1.268.779-.185 1.171-.385 1.171-.285z" fill="#f8f8f8"/></g><g data-name="Group 2441"><path data-name="Path 2919" d="M137.491 305.637s-.39.2-1.073.585c-.683.293-1.658.78-2.828 1.365-2.438 1.17-5.851 2.633-9.653 4.193s-7.216 2.925-9.751 3.9a29.953 29.953 0 0 1-3.023 1.073c-.683.2-1.073.39-1.17.293s.39-.2 1.073-.488c.78-.293 1.755-.78 2.925-1.268 2.633-1.073 5.948-2.438 9.751-4 3.705-1.56 7.118-3.023 9.653-4.1 1.17-.488 2.145-.878 2.925-1.268z" fill="#f8f8f8"/></g><g data-name="Group 2442"><path data-name="Path 2920" d="M137.1 324.457s-.39.2-1.073.585c-.683.293-1.658.78-2.828 1.365-2.438 1.17-5.851 2.633-9.653 4.193s-7.216 2.925-9.751 3.9a29.944 29.944 0 0 1-3.023 1.073c-.683.2-1.073.39-1.17.293 0 0 .39-.2 1.073-.488.78-.293 1.755-.78 2.925-1.268 2.633-1.073 5.948-2.438 9.751-4 3.705-1.56 7.118-3.023 9.653-4.1 1.17-.488 2.145-.878 2.925-1.268.681-.185 1.171-.385 1.171-.285z" fill="#f8f8f8"/></g><g data-name="Group 2443"><path data-name="Path 2921" d="M141.584 213.492s-.39.2-1.073.585c-.683.293-1.755.78-2.925 1.365-2.535 1.17-6.046 2.633-9.946 4.193s-7.508 2.925-10.043 3.9a30.244 30.244 0 0 1-3.12 1.073c-.78.2-1.17.39-1.17.293s.39-.2 1.073-.488c.78-.293 1.853-.78 3.023-1.268 2.633-1.073 6.143-2.438 10.043-4 3.8-1.56 7.313-3.023 9.946-4.1 1.17-.488 2.243-.878 3.023-1.268.779-.185 1.169-.385 1.169-.285z" fill="#f8f8f8"/></g><g data-name="Group 2444"><path data-name="Path 2922" d="M142.169 193.599s-.39.2-1.073.585c-.683.293-1.755.78-2.925 1.365-2.535 1.17-6.046 2.633-9.946 4.193s-7.508 2.925-10.043 3.9a30.251 30.251 0 0 1-3.12 1.073c-.78.195-1.17.39-1.17.293 0 0 .39-.2 1.073-.488.78-.293 1.853-.78 3.023-1.268 2.633-1.073 6.143-2.438 10.043-4 3.8-1.56 7.313-3.023 9.946-4.1 1.17-.488 2.243-.878 3.023-1.268.681-.185 1.169-.285 1.169-.285z" fill="#f8f8f8"/></g><g data-name="Group 2445"><path data-name="Path 2923" d="M142.656 173.805a10.132 10.132 0 0 0-.975.585c-.683.293-1.658.78-2.828 1.365-2.438 1.073-5.753 2.535-9.458 4.1-3.705 1.463-7.118 2.828-9.653 3.705-1.268.488-2.243.78-2.925.975s-1.073.293-1.073.293.39-.2 1.073-.488q1.17-.439 2.925-1.17c2.535-.975 5.851-2.34 9.556-3.8s6.923-2.828 9.556-3.9q1.755-.731 2.925-1.17a2.572 2.572 0 0 1 .877-.495z" fill="#f8f8f8"/></g><g data-name="Group 2446"><path data-name="Path 2924" d="M144.899 155.279a26.983 26.983 0 0 1-4.875 2.048c-2.73.975-4.973 1.755-5.07 1.56a31.456 31.456 0 0 1 4.875-2.048c2.73-.976 4.972-1.76 5.07-1.56z" fill="#f8f8f8"/></g><g data-name="Group 2447"><path data-name="Path 2925" d="M82.883 176.242a17.309 17.309 0 0 1-1.56.78 74.637 74.637 0 0 1-4.29 1.95c-3.608 1.56-8.678 3.705-14.236 5.948s-10.726 4.29-14.431 5.656c-1.853.683-3.315 1.268-4.388 1.56-1.073.39-1.658.585-1.658.488 0 0 .585-.293 1.56-.683q1.609-.731 4.388-1.755c3.705-1.463 8.776-3.51 14.334-5.753s10.628-4.29 14.334-5.851c1.755-.683 3.218-1.365 4.388-1.755.974-.385 1.559-.585 1.559-.585z" fill="#f8f8f8"/></g><g data-name="Group 2448"><path data-name="Path 2926" d="M102.19 149.232a17.306 17.306 0 0 1-1.56.78 74.637 74.637 0 0 1-4.29 1.95c-3.608 1.56-8.678 3.705-14.236 5.948s-10.726 4.29-14.431 5.656c-1.853.683-3.315 1.268-4.388 1.56-1.073.39-1.658.585-1.658.488 0 0 .585-.293 1.56-.683q1.609-.731 4.388-1.755c3.705-1.463 8.776-3.51 14.334-5.753s10.628-4.29 14.334-5.851c1.755-.683 3.218-1.365 4.388-1.755a39.336 39.336 0 0 1 1.559-.585z" fill="#f8f8f8"/></g><g data-name="Group 2449"><path data-name="Path 2927" d="M120.034 122.222a17.311 17.311 0 0 1-1.56.78 74.637 74.637 0 0 1-4.29 1.95c-3.608 1.56-8.678 3.705-14.236 5.948s-10.726 4.29-14.431 5.656c-1.853.683-3.315 1.268-4.388 1.56-1.073.39-1.658.585-1.658.488 0 0 .585-.293 1.56-.683q1.609-.731 4.388-1.755c3.705-1.463 8.776-3.51 14.334-5.753s10.628-4.29 14.334-5.851c1.755-.683 3.218-1.365 4.388-1.755.974-.385 1.559-.585 1.559-.585z" fill="#f8f8f8"/></g><g data-name="Group 2450"><path data-name="Path 2928" d="M138.658 96.285a17.312 17.312 0 0 1-1.56.78 74.637 74.637 0 0 1-4.29 1.95c-3.608 1.56-8.678 3.705-14.236 5.948s-10.726 4.29-14.431 5.656c-1.853.683-3.315 1.268-4.388 1.56-1.073.39-1.658.585-1.658.488 0 0 .585-.293 1.56-.683q1.609-.731 4.388-1.755c3.705-1.463 8.776-3.51 14.334-5.753s10.628-4.29 14.334-5.851c1.755-.683 3.218-1.365 4.388-1.755.974-.385 1.559-.585 1.559-.585z" fill="#f8f8f8"/></g><g data-name="Group 2451"><path data-name="Path 2929" d="M187.997 135.971s-.2.2-.585.683l-1.755 1.755a30.158 30.158 0 0 1-7.606 4.875 33.98 33.98 0 0 1-13.066 2.925 28.049 28.049 0 0 1-7.9-.878 41.973 41.973 0 0 1-8-3.023c-5.266-2.535-9.946-5.558-14.431-7.7a32.263 32.263 0 0 0-12.774-3.315 18.221 18.221 0 0 0-8.678 1.658 31.48 31.48 0 0 0-2.145 1.17 3.858 3.858 0 0 0-.683.488s.2-.2.683-.585a10.928 10.928 0 0 1 2.048-1.268 18.38 18.38 0 0 1 8.776-1.853 33.526 33.526 0 0 1 12.969 3.315c4.583 2.048 9.263 5.07 14.529 7.606a37.046 37.046 0 0 0 7.9 2.925 27.01 27.01 0 0 0 7.8.878 33.006 33.006 0 0 0 12.875-2.826 34.78 34.78 0 0 0 7.606-4.68 18.711 18.711 0 0 0 1.853-1.658 5.968 5.968 0 0 0 .584-.492z" fill="#f8f8f8"/></g><g data-name="Group 2452"><path data-name="Path 2930" d="M174.443 87.704a7.166 7.166 0 0 1-1.268.683c-.78.488-2.048.975-3.51 1.658a43.725 43.725 0 0 1-5.461 1.95 56.381 56.381 0 0 1-6.923 1.56 65.362 65.362 0 0 1-7.021.683 53.586 53.586 0 0 1-5.753-.1 27.97 27.97 0 0 1-3.9-.488c-.878-.2-1.365-.293-1.365-.293s.488 0 1.463.1c.878.1 2.243.2 3.9.293a56.374 56.374 0 0 0 5.753 0 63.075 63.075 0 0 0 7.021-.683 58.96 58.96 0 0 0 6.826-1.56c2.048-.585 3.9-1.268 5.461-1.853s2.73-1.073 3.608-1.463c.682-.287 1.169-.487 1.169-.487z" fill="#f8f8f8"/></g><g data-name="Group 2453"><path data-name="Path 2931" d="M105.212 196.036s-.293-.293-.878-.975-1.365-1.658-2.34-2.73a102.724 102.724 0 0 0-8.191-8.581 29.45 29.45 0 0 0-5.07-3.9 14.529 14.529 0 0 0-4.875-1.853 13.1 13.1 0 0 0-4.875 0 .427.427 0 0 1 .293-.1 2.447 2.447 0 0 1 .975-.2 14.67 14.67 0 0 1 3.608 0 16.97 16.97 0 0 1 5.07 1.853 26.843 26.843 0 0 1 5.265 4 86.548 86.548 0 0 1 8.093 8.678c.975 1.17 1.658 2.145 2.145 2.828.585.59.877.98.78.98z" fill="#91e89c"/></g><g data-name="Group 2454"><path data-name="Path 2932" d="M183.024 225.485a2.885 2.885 0 0 1-.39.292c-.293.2-.683.488-1.17.78a22.841 22.841 0 0 1-4.583 2.145 29.638 29.638 0 0 1-16.479 1.268 30.073 30.073 0 0 1-14.626-7.7 24.448 24.448 0 0 1-3.315-3.8 11.947 11.947 0 0 1-.78-1.17c-.2-.293-.293-.39-.2-.39l1.17 1.463a27.165 27.165 0 0 0 3.413 3.608 31.33 31.33 0 0 0 14.529 7.411 30.917 30.917 0 0 0 20.867-3.218c.979-.397 1.564-.689 1.564-.689z" fill="#f8f8f8"/></g><g data-name="Group 2455"><path data-name="Path 2933" d="M211.4 287.207a5.062 5.062 0 0 0-.293-.488 13.355 13.355 0 0 1-.78-1.365 35.82 35.82 0 0 0-3.315-4.973c-.39-.488-.878-.975-1.365-1.56-.2-.293-.488-.585-.683-.878a5.882 5.882 0 0 1-.78-.78l-1.755-1.755c-.683-.585-1.365-1.073-2.048-1.658a46.5 46.5 0 0 0-10.726-6.338 45.333 45.333 0 0 0-14.626-3.413 40.258 40.258 0 0 0-16.967 2.73c-5.656 2.243-11.214 5.655-17.064 8.873a89.272 89.272 0 0 1-9.166 4.583 35.961 35.961 0 0 1-10.238 2.633 31.842 31.842 0 0 1-10.531-.683 45.106 45.106 0 0 1-9.653-3.315 97.55 97.55 0 0 1-16.479-10.043c-4.973-3.608-9.751-7.021-14.431-9.751a52.529 52.529 0 0 0-13.846-5.948 34.336 34.336 0 0 0-12.384-.78 25.1 25.1 0 0 0-8.971 2.633 25.358 25.358 0 0 0-4.875 3.315l-1.074 1.069-.39.39.39-.39c.293-.292.585-.683 1.073-1.17a27.752 27.752 0 0 1 4.875-3.51 28.529 28.529 0 0 1 9.068-2.73 34.748 34.748 0 0 1 12.481.78 53.632 53.632 0 0 1 14.041 5.948c4.778 2.73 9.458 6.143 14.529 9.751a100.254 100.254 0 0 0 16.382 9.946 52.694 52.694 0 0 0 9.556 3.315 30.512 30.512 0 0 0 10.336.585 39.1 39.1 0 0 0 10.043-2.633 78.468 78.468 0 0 0 9.068-4.485c5.851-3.218 11.311-6.631 17.064-8.873a37.835 37.835 0 0 1 4.388-1.365c.683-.2 1.463-.39 2.145-.585a13.988 13.988 0 0 0 2.145-.39 41.863 41.863 0 0 1 8.483-.39 43.528 43.528 0 0 1 14.821 3.51 48 48 0 0 1 10.726 6.436l2.048 1.755 1.755 1.755.78.78c.2.293.488.585.683.878.488.585.878 1.073 1.268 1.56a47.823 47.823 0 0 1 3.315 4.973 13.354 13.354 0 0 0 .78 1.365 2.2 2.2 0 0 1 .197.686z" fill="#f8f8f8"/></g><g data-name="Group 2456"><path data-name="Path 2934" d="M181.952 327.966a1.183 1.183 0 0 1-.488.1q-.585.146-1.463.293a12.619 12.619 0 0 1-2.34.293c-.878.1-1.95.2-3.023.293-.585 0-1.17.1-1.755.1h-1.95a33.992 33.992 0 0 1-4.29-.293 53.989 53.989 0 0 1-9.653-1.853 56.085 56.085 0 0 1-9.166-3.608 42.165 42.165 0 0 1-3.705-2.048c-.585-.39-1.17-.683-1.658-1.073s-.975-.683-1.463-1.073a17.631 17.631 0 0 1-2.438-1.853c-.683-.585-1.268-1.073-1.755-1.56a8.815 8.815 0 0 0-1.073-.975l-.39-.39a1.684 1.684 0 0 1 .39.293c.293.293.683.585 1.17.975s1.073.878 1.755 1.463c.683.488 1.56 1.17 2.438 1.755.488.293.975.683 1.463.975a9.262 9.262 0 0 0 1.658.975c1.17.683 2.438 1.365 3.705 2.048a65.144 65.144 0 0 0 9.068 3.51 51.466 51.466 0 0 0 9.556 1.853c1.463.1 2.925.293 4.193.293a13.02 13.02 0 0 0 1.95 0h1.755a26.218 26.218 0 0 0 3.023-.2q1.316-.146 2.34-.292c.585-.1 1.073-.1 1.463-.2a2.2 2.2 0 0 0 .683.199z" fill="#f8f8f8"/></g></g></g><g data-name="Group 2484"><g data-name="Group 2459"><path data-name="Path 2935" d="M578.912 251.129l32.471-3.218 3.413 34.421-32.471 3.219 5.558 57.14-42.709 4.193-5.558-57.14-110.283 10.822-3.608-26.035 92.926-184.39 44.074-4.29zm-111.746 10.922l69.036-6.728-10.238-104.336-1.073-.293-2.828 7.9z" fill="#e8505b"/></g><g data-name="Group 2460"><path data-name="Path 2936" d="M578.912 251.129l32.471-3.218 3.413 34.421-32.471 3.219 5.558 57.14-42.709 4.193-5.558-57.14-110.283 10.822-3.608-26.035 92.926-184.39 44.074-4.29zm-111.746 10.922l69.036-6.728-10.238-104.336-1.073-.293-2.828 7.9z" fill="#00916f"/></g><g data-name="Group 2461"><path data-name="Path 2937" d="M606.117 248.496l32.471-3.218 3.413 34.421-32.471 3.219 5.558 57.14-42.709 4.193-5.558-57.14-110.283 10.822-3.608-26.035 92.926-184.39 44.074-4.29zm-111.746 10.922l69.036-6.728-10.238-104.336-1.073-.293-2.828 7.9z" fill="#50ea9a"/></g><g data-name="Group 2483"><g data-name="Group 2462"><path data-name="Path 2938" d="M454.1 276.676a8.512 8.512 0 0 1-.975.78c-.683.488-1.56 1.073-2.73 1.853-2.34 1.56-5.558 3.608-9.166 5.753s-6.923 4.1-9.361 5.46c-1.17.683-2.243 1.17-2.925 1.56a4.811 4.811 0 0 1-1.073.488 5 5 0 0 1 .975-.683c.78-.488 1.658-.975 2.828-1.658 2.438-1.463 5.753-3.413 9.361-5.558s6.826-4.1 9.263-5.656c1.073-.683 2.048-1.268 2.828-1.658.585-.481.877-.681.975-.681z" fill="#f8f8f8"/></g><g data-name="Group 2463"><path data-name="Path 2939" d="M465.704 245.571s-.488.39-1.365.975-2.145 1.463-3.8 2.438c-3.218 2.048-7.7 4.875-12.676 7.8a416.013 416.013 0 0 1-12.871 7.508c-1.658.975-3.023 1.658-4 2.145s-1.463.78-1.463.683a10.723 10.723 0 0 1 1.365-.878c.975-.585 2.34-1.365 3.9-2.34 3.315-2.048 7.8-4.68 12.774-7.7s9.458-5.656 12.774-7.7c1.56-.975 2.925-1.755 3.9-2.34.877-.396 1.364-.691 1.462-.591z" fill="#f8f8f8"/></g><g data-name="Group 2464"><path data-name="Path 2940" d="M481.207 217.001s-.488.39-1.365.975c-.975.585-2.243 1.463-4 2.535-3.413 2.048-8.093 4.875-13.261 7.9-5.265 3.023-10.043 5.753-13.456 7.606-1.755.975-3.12 1.658-4.1 2.243l-1.56.78a8.974 8.974 0 0 1 1.463-.878q1.609-.878 4.1-2.34a1110.95 1110.95 0 0 1 13.359-7.7c5.168-3.023 9.848-5.753 13.359-7.8q2.486-1.463 4.1-2.34a7.271 7.271 0 0 1 1.361-.981z" fill="#f8f8f8"/></g><g data-name="Group 2465"><path data-name="Path 2941" d="M562.238 235.918a4.991 4.991 0 0 1-.975.683c-.683.39-1.56 1.073-2.73 1.755-2.34 1.463-5.558 3.51-9.263 5.558-3.608 2.145-7.021 4-9.458 5.266q-1.9 1.024-2.925 1.463a4.813 4.813 0 0 1-1.073.488s.39-.293.975-.683c.78-.488 1.755-.975 2.828-1.658a1493.05 1493.05 0 0 1 9.361-5.363c3.608-2.145 6.826-4 9.263-5.461 1.17-.683 2.048-1.17 2.828-1.658.779-.29 1.169-.49 1.169-.39z" fill="#f8f8f8"/></g><g data-name="Group 2466"><path data-name="Path 2942" d="M566.626 289.353a4.993 4.993 0 0 1-.975.683c-.585.39-1.56 1.073-2.633 1.755a263.708 263.708 0 0 1-8.971 5.558c-3.51 2.145-6.728 3.9-9.166 5.168a27.039 27.039 0 0 1-2.828 1.463c-.683.293-1.073.488-1.073.488a5 5 0 0 1 .975-.683c.78-.488 1.658-.975 2.73-1.658 2.438-1.463 5.558-3.315 9.068-5.363s6.631-4 8.971-5.461c1.073-.683 2.048-1.17 2.73-1.658a3.948 3.948 0 0 0 1.172-.292z" fill="#f8f8f8"/></g><g data-name="Group 2467"><path data-name="Path 2943" d="M568.868 308.075a4.994 4.994 0 0 1-.975.683c-.585.39-1.56 1.073-2.633 1.755a263.708 263.708 0 0 1-8.971 5.558c-3.51 2.145-6.728 3.9-9.166 5.168a27.039 27.039 0 0 1-2.828 1.463c-.683.293-1.073.488-1.073.488a4.994 4.994 0 0 1 .975-.683c.78-.488 1.658-.975 2.73-1.658 2.438-1.463 5.558-3.315 9.068-5.363s6.631-4 8.971-5.461c1.073-.683 2.048-1.17 2.73-1.658.782-.192 1.172-.392 1.172-.292z" fill="#f8f8f8"/></g><g data-name="Group 2468"><path data-name="Path 2944" d="M571.013 326.699a4.994 4.994 0 0 1-.975.683c-.585.39-1.56 1.073-2.633 1.755a263.708 263.708 0 0 1-8.971 5.558c-3.51 2.145-6.728 3.9-9.166 5.168a27.035 27.035 0 0 1-2.828 1.463c-.683.293-1.073.488-1.073.488a4.99 4.99 0 0 1 .975-.683c.78-.488 1.658-.975 2.73-1.658 2.438-1.463 5.558-3.315 9.068-5.363s6.631-4 8.971-5.461c1.073-.683 2.048-1.17 2.73-1.658a3.946 3.946 0 0 0 1.172-.292z" fill="#f8f8f8"/></g><g data-name="Group 2469"><path data-name="Path 2945" d="M559.995 216.221a4.994 4.994 0 0 1-.975.683c-.683.39-1.56 1.073-2.73 1.755-2.34 1.463-5.558 3.51-9.263 5.558-3.608 2.145-7.021 4-9.458 5.266q-1.9 1.024-2.925 1.463a4.812 4.812 0 0 1-1.073.488s.39-.292.975-.683c.78-.488 1.755-.975 2.828-1.658a1493.05 1493.05 0 0 1 9.361-5.363c3.608-2.145 6.826-4 9.263-5.461 1.17-.683 2.048-1.17 2.828-1.658.779-.29 1.169-.49 1.169-.39z" fill="#f8f8f8"/></g><g data-name="Group 2470"><path data-name="Path 2946" d="M557.655 196.525a4.99 4.99 0 0 1-.975.683c-.683.39-1.56 1.073-2.73 1.755-2.34 1.463-5.558 3.51-9.263 5.558a194 194 0 0 1-9.458 5.265q-1.9 1.024-2.925 1.463a4.812 4.812 0 0 1-1.073.488s.39-.293.975-.683c.78-.488 1.755-.975 2.828-1.658a1493.05 1493.05 0 0 1 9.361-5.363c3.608-2.145 6.826-4 9.263-5.461 1.17-.683 2.048-1.17 2.828-1.658.779-.289 1.169-.489 1.169-.389z" fill="#f8f8f8"/></g><g data-name="Group 2471"><path data-name="Path 2947" d="M555.412 176.73a6.241 6.241 0 0 1-.878.683c-.585.39-1.463.975-2.633 1.658-2.243 1.365-5.363 3.315-8.776 5.363-3.51 2.048-6.631 3.8-8.971 4.973a30 30 0 0 0-2.73 1.463c-.683.293-1.073.488-1.073.488a3.314 3.314 0 0 1 .975-.585c.683-.39 1.658-.975 2.73-1.56 2.34-1.365 5.46-3.12 8.873-5.07 3.413-2.048 6.533-3.8 8.873-5.168 1.073-.585 1.95-1.17 2.73-1.56a3.817 3.817 0 0 1 .88-.685z" fill="#f8f8f8"/></g><g data-name="Group 2472"><path data-name="Path 2948" d="M555.022 158.106a25.4 25.4 0 0 1-4.583 2.73 32.93 32.93 0 0 1-4.778 2.34 25.394 25.394 0 0 1 4.583-2.73 24.065 24.065 0 0 1 4.778-2.34z" fill="#f8f8f8"/></g><g data-name="Group 2473"><path data-name="Path 2949" d="M496.516 187.553s-.488.39-1.365.975c-.975.585-2.243 1.463-4 2.535-3.413 2.048-8.093 4.875-13.261 7.9-5.266 3.023-10.043 5.753-13.456 7.606-1.755.975-3.12 1.658-4.1 2.243l-1.56.78a8.976 8.976 0 0 1 1.463-.878q1.609-.878 4.1-2.34a1110.95 1110.95 0 0 1 13.359-7.7c5.168-3.023 9.848-5.753 13.359-7.8q2.486-1.463 4.1-2.34a15.594 15.594 0 0 1 1.361-.981z" fill="#91e89c"/></g><g data-name="Group 2474"><path data-name="Path 2950" d="M511.923 158.105s-.488.39-1.365.975c-.975.585-2.243 1.463-4 2.535-3.413 2.048-8.093 4.875-13.261 7.9-5.266 3.023-10.043 5.753-13.456 7.606-1.755.975-3.12 1.658-4.1 2.243l-1.56.78a8.975 8.975 0 0 1 1.463-.878q1.609-.878 4.1-2.34a1110.95 1110.95 0 0 1 13.359-7.7c5.168-3.023 9.848-5.753 13.359-7.8q2.487-1.463 4.1-2.34a7.268 7.268 0 0 1 1.361-.981z" fill="#91e89c"/></g><g data-name="Group 2475"><path data-name="Path 2951" d="M525.769 128.951s-.488.39-1.365.975c-.975.585-2.243 1.463-4 2.535-3.413 2.048-8.093 4.875-13.261 7.9-5.266 3.023-10.044 5.753-13.456 7.606-1.755.975-3.12 1.658-4.1 2.243l-1.56.78a8.976 8.976 0 0 1 1.463-.878q1.609-.878 4.1-2.34a1110.95 1110.95 0 0 1 13.359-7.7c5.168-3.023 9.848-5.753 13.359-7.8q2.486-1.463 4.1-2.34c.873-.786 1.361-1.081 1.361-.981z" fill="#f8f8f8"/></g><g data-name="Group 2476"><path data-name="Path 2952" d="M540.591 100.575s-.488.39-1.365.975c-.975.585-2.243 1.463-4 2.535-3.413 2.048-8.093 4.875-13.261 7.9-5.266 3.023-10.043 5.753-13.456 7.606-1.755.975-3.12 1.658-4.1 2.243l-1.56.78a8.975 8.975 0 0 1 1.463-.878q1.609-.878 4.1-2.34a1110.95 1110.95 0 0 1 13.359-7.7c5.168-3.023 9.848-5.753 13.359-7.8q2.486-1.463 4.1-2.34a4.883 4.883 0 0 1 1.361-.981z" fill="#f8f8f8"/></g><g data-name="Group 2477"><path data-name="Path 2953" d="M595.001 132.948s-.2.293-.488.683a14.238 14.238 0 0 1-1.463 1.95 31.677 31.677 0 0 1-6.826 5.948 34.772 34.772 0 0 1-12.481 4.778 30.4 30.4 0 0 1-7.9.2 42.212 42.212 0 0 1-8.288-1.853c-5.558-1.755-10.629-4.1-15.406-5.558a31.857 31.857 0 0 0-13.066-1.463 18.621 18.621 0 0 0-8.386 2.828 14.189 14.189 0 0 0-1.95 1.463 5.039 5.039 0 0 1-.683.585l.585-.585a11.607 11.607 0 0 1 1.853-1.56 18.92 18.92 0 0 1 8.483-3.023 32.4 32.4 0 0 1 13.261 1.365c4.875 1.463 9.946 3.705 15.406 5.558a41.294 41.294 0 0 0 8.191 1.853 29.539 29.539 0 0 0 7.8-.2 34.211 34.211 0 0 0 12.384-4.583 31.823 31.823 0 0 0 6.826-5.753c.683-.78 1.268-1.463 1.56-1.853a5.764 5.764 0 0 1 .588-.78z" fill="#f8f8f8"/></g><g data-name="Group 2478"><path data-name="Path 2954" d="M574.816 87.119a7.144 7.144 0 0 1-1.17.878c-.78.585-1.853 1.268-3.315 2.145a48.667 48.667 0 0 1-5.168 2.73 63.264 63.264 0 0 1-6.631 2.535 54.256 54.256 0 0 1-6.923 1.658 47.831 47.831 0 0 1-5.753.683c-1.658.1-3.023.1-3.9.1a9.82 9.82 0 0 1-1.463-.1 8.327 8.327 0 0 1 1.463-.1 36.625 36.625 0 0 0 3.9-.293 45.844 45.844 0 0 0 5.656-.78 69.035 69.035 0 0 0 6.825-1.656 86.185 86.185 0 0 0 6.631-2.535 50.539 50.539 0 0 0 5.168-2.633c1.463-.78 2.535-1.463 3.315-1.95.878-.487 1.365-.782 1.365-.682z" fill="#f8f8f8"/></g><g data-name="Group 2479"><path data-name="Path 2955" d="M521.479 204.032a10.256 10.256 0 0 1-.975-.878c-.683-.585-1.56-1.463-2.633-2.438a106.635 106.635 0 0 0-9.263-7.313 33.363 33.363 0 0 0-5.656-3.218 15.65 15.65 0 0 0-5.07-1.17 11.8 11.8 0 0 0-4.778.683 1.207 1.207 0 0 1 .293-.2c.2-.1.488-.2.878-.39a11.024 11.024 0 0 1 3.608-.488 15.828 15.828 0 0 1 5.266 1.073 31.312 31.312 0 0 1 5.753 3.218 89.784 89.784 0 0 1 9.262 7.415l2.535 2.535c.488.781.78 1.171.78 1.171z" fill="#91e89c"/></g><g data-name="Group 2480"><path data-name="Path 2956" d="M602.606 222.266a2.887 2.887 0 0 0-.292.39c-.2.2-.585.488-1.073.878a27.64 27.64 0 0 1-4.193 2.828 30.64 30.64 0 0 1-16.186 3.608 29.759 29.759 0 0 1-15.6-5.558 24 24 0 0 1-3.8-3.315c-.39-.39-.683-.78-.878-.975a1.685 1.685 0 0 1-.293-.39s.488.488 1.365 1.268a33.514 33.514 0 0 0 3.9 3.12 30.555 30.555 0 0 0 15.406 5.363 31.657 31.657 0 0 0 15.992-3.413 39.6 39.6 0 0 0 4.29-2.633c.874-.781 1.362-1.171 1.362-1.171z" fill="#f8f8f8"/></g><g data-name="Group 2481"><path data-name="Path 2957" d="M639.465 279.407a2.885 2.885 0 0 1-.293-.39c-.2-.293-.585-.683-.975-1.268a34.478 34.478 0 0 0-4-4.388c-.488-.39-.975-.878-1.56-1.365a2.969 2.969 0 0 1-.78-.78 8.431 8.431 0 0 0-.975-.683c-.683-.488-1.268-.975-1.95-1.463s-1.463-.878-2.243-1.365a46.413 46.413 0 0 0-11.506-4.778 43.912 43.912 0 0 0-15.016-1.268 42.424 42.424 0 0 0-16.479 5.07c-5.363 3.023-10.336 7.118-15.6 11.214a84.825 84.825 0 0 1-8.386 5.753 37.548 37.548 0 0 1-9.751 4.1 35.024 35.024 0 0 1-10.531.878 42.622 42.622 0 0 1-10.043-1.95 97.255 97.255 0 0 1-17.747-7.606c-5.461-2.828-10.629-5.558-15.7-7.606a51.33 51.33 0 0 0-14.529-3.9 35.745 35.745 0 0 0-12.384.975 26.057 26.057 0 0 0-8.581 3.8 23.3 23.3 0 0 0-4.388 4c-.39.488-.683.975-.975 1.268a2.886 2.886 0 0 1-.293.39 5.073 5.073 0 0 1 .293-.488c.2-.293.488-.683.878-1.268a18.243 18.243 0 0 1 4.388-4.1 26.048 26.048 0 0 1 8.581-4 34.067 34.067 0 0 1 12.481-.975 51.672 51.672 0 0 1 14.724 3.9c5.07 2.048 10.239 4.778 15.7 7.606a96.073 96.073 0 0 0 17.649 7.508 42.659 42.659 0 0 0 9.946 1.853 30.98 30.98 0 0 0 10.336-.878 39.564 39.564 0 0 0 9.556-4 84.825 84.825 0 0 0 8.386-5.753c5.266-4.1 10.336-8.191 15.7-11.214 1.365-.683 2.73-1.463 4.1-2.048l2.048-.878c.683-.2 1.365-.488 2.145-.683a43.6 43.6 0 0 1 8.386-1.56 44.406 44.406 0 0 1 15.114 1.365 44.893 44.893 0 0 1 11.506 4.875c.78.488 1.56.975 2.243 1.463s1.365.975 1.95 1.463a8.421 8.421 0 0 0 .975.683 5.885 5.885 0 0 1 .78.78 19.52 19.52 0 0 0 1.56 1.365 30.888 30.888 0 0 1 3.9 4.485c.39.585.683.975.878 1.268a2.758 2.758 0 0 1 .482.593z" fill="#f8f8f8"/></g><g data-name="Group 2482"><path data-name="Path 2958" d="M615.965 323.871a4.1 4.1 0 0 1-.488.2 11.826 11.826 0 0 0-1.365.488 21.345 21.345 0 0 1-2.243.683c-.878.2-1.853.488-3.023.683l-1.755.292c-.585.1-1.268.2-1.95.293-1.365.2-2.73.293-4.29.39a56.3 56.3 0 0 1-9.751-.488 65.426 65.426 0 0 1-9.556-2.243 37.952 37.952 0 0 1-4-1.56c-.585-.292-1.17-.488-1.755-.78s-1.073-.585-1.56-.78c-1.073-.488-1.853-1.073-2.633-1.463a23.026 23.026 0 0 1-1.95-1.268 6.077 6.077 0 0 1-1.17-.878 2.894 2.894 0 0 1-.39-.292 4.1 4.1 0 0 0 .488.2c.293.2.78.488 1.268.78a11.409 11.409 0 0 0 1.95 1.17c.78.39 1.658.975 2.73 1.463.487.292 1.073.488 1.56.78.585.293 1.17.488 1.755.78a31.427 31.427 0 0 0 4 1.463 61.235 61.235 0 0 0 9.458 2.243 55.655 55.655 0 0 0 9.653.488c1.463-.1 2.925-.1 4.193-.293.683-.1 1.268-.1 1.95-.2l1.755-.293c1.17-.2 2.145-.39 3.023-.585s1.658-.39 2.243-.585 1.073-.293 1.365-.39c.293-.298.488-.298.488-.298z" fill="#f8f8f8"/></g></g></g><g data-name="Group 2537"><g data-name="Group 2534"><g data-name="Group 2487"><path data-name="Path 2959" d="M455.543 220.9l-6.826-1.073-42.317-13.649-24.767-7.118a26.487 26.487 0 0 0-21.354 1.463C348.576 206.47 316.3 236.5 316.3 236.5l23.207 23.89-10.921 48.462c12.286 34.811 36.176 38.809 36.176 38.809a86.168 86.168 0 0 0 34.323-5.656c22.232-8.483 45.634-28.375 48.56-36.956 1.755-5.168 3.218-15.894 4.388-28.083l35.2-14.334 9.556-48.755z" transform="translate(-42.592 -39.882)" fill="url(#a)"/><g data-name="Group 2485"><path data-name="Path 2960" d="M361.467 267.315a2.883 2.883 0 0 1-.39.292 6.133 6.133 0 0 1-1.073.78 22.66 22.66 0 0 1-4.193 2.243 25.83 25.83 0 0 1-29.155-6.338 23.529 23.529 0 0 1-2.925-3.8c-.293-.488-.488-.878-.683-1.17a1.067 1.067 0 0 0-.2-.39 14.586 14.586 0 0 1 .975 1.463 20.133 20.133 0 0 0 3.023 3.705 26.93 26.93 0 0 0 13.456 7.606 27.616 27.616 0 0 0 15.406-1.268 34.566 34.566 0 0 0 4.29-2.145c.981-.686 1.469-1.076 1.469-.978z" fill="#6d74d6"/></g><g data-name="Group 2486"><path data-name="Path 2961" d="M348.11 168.343a.3.3 0 0 0 .1.2 2.481 2.481 0 0 0 .2.683 18.646 18.646 0 0 1 .585 2.633 61 61 0 0 1 1.365 9.946 34.125 34.125 0 0 1-.39 6.923 25.932 25.932 0 0 1-2.73 7.508 31.012 31.012 0 0 1-5.753 6.728c-2.34 2.048-4.875 3.9-7.411 5.948-5.461 4.1-10.824 7.9-15.6 11.214-4.778 3.413-8.971 6.436-12.384 8.971l-.1.1-.1-.1a84.026 84.026 0 0 1-6.728-6.046 15.517 15.517 0 0 1-1.56-1.853c-.2-.2-.293-.39-.39-.488a.3.3 0 0 1-.1-.2 3.862 3.862 0 0 1 .488.683 22.979 22.979 0 0 0 1.658 1.755 73.677 73.677 0 0 0 6.826 5.948h-.2c3.315-2.633 7.508-5.655 12.286-9.068s10.141-7.118 15.6-11.311c2.535-1.95 5.07-3.9 7.411-5.851a32.562 32.562 0 0 0 5.753-6.533 19.731 19.731 0 0 0 2.73-7.313 34.515 34.515 0 0 0 .488-6.923 62.844 62.844 0 0 0-1.268-9.946c-.2-1.17-.39-2.048-.488-2.73a1.9 1.9 0 0 1-.1-.683c-.188-.095-.188-.195-.188-.195z" fill="#6d74d6"/></g></g><g data-name="Group 2493"><path data-name="Path 2962" d="M531.716 190.283c9.946-8.483 13.261-23.792 7.8-35.591-4.68-.488-9.263-.975-13.944-1.463a19.912 19.912 0 0 0 10.141-20.087c-7.508 8.093-20.574 10.531-30.423 5.656-6.533-3.218-11.8-9.263-18.917-10.433-6.533-1.17-12.871 1.95-19.112 4.1-6.241 2.243-13.749 3.413-18.917-.683-4.1-3.315-5.363-8.971-5.07-14.236s1.755-10.336 2.145-15.5a35.007 35.007 0 0 0-11.311-27.5 26.782 26.782 0 0 0-42.028-13.365c-3.023 2.34-5.656 5.363-9.068 7.118-3.9 1.95-8.483 1.95-12.676 2.925-4.193 1.073-8.678 3.8-9.166 8.191l-1.658 8.873a11.114 11.114 0 0 1-.975 1.853c-3.608 6.338-10.921 10.433-12.579 17.552-.878 4 .2 8.288-1.073 12.091-1.755 5.07-7.216 7.9-9.751 12.579-3.51 6.436-1.17 17.844 4.485 22.622 5.558 4.778 17.064 9.848 24.28 11.409 1.95-7.508 3.705-15.5 5.363-23.695 2.925 2.828 6.046 5.461 9.068 8.191 8 6.923 16.186 14.041 21.745 23.11 10.531 17.162 10.726 39.979 23.987 55.093 2.633 3.023 5.753 5.656 9.556 6.728 3.8 1.17 8.288.585 11.116-2.243 3.315-3.315 3.705-8.873 7.411-11.7 4.875-3.9 11.994-.78 17.162 2.535 3.8 2.438 7.606 4.973 11.9 6.338s9.263 1.268 12.871-1.365 5.266-8.191 2.633-11.8c-1.073-1.463-2.633-2.438-3.705-3.9s-1.365-3.8.1-4.875c1.56-1.17 3.8 0 5.46.975a32.758 32.758 0 0 0 47.584-17.747 27.834 27.834 0 0 1-14.434-1.756z" fill="#263238"/><g data-name="Group 2488"><path data-name="Path 2963" d="M523.038 113.739a7.587 7.587 0 0 1 1.268 1.073 13.153 13.153 0 0 1 2.828 3.8 10.2 10.2 0 0 1 1.073 3.315 7.565 7.565 0 0 1-.488 4.1 7.67 7.67 0 0 1-3.023 3.608 5.247 5.247 0 0 1-2.438.878 5.342 5.342 0 0 1-2.73-.39c-3.608-1.463-5.46-5.656-9.361-7.508-3.8-2.048-8.678-2.145-13.359-1.073-4.778 1.073-9.263 3.608-13.846 6.241-4.583 2.535-9.556 5.363-15.211 6.338a20.236 20.236 0 0 1-8.386-.1 14.554 14.554 0 0 1-3.9-1.463 16.138 16.138 0 0 1-3.315-2.438 17.793 17.793 0 0 1-4.193-6.631 33.241 33.241 0 0 1-1.755-7.313c-.488-4.875-.1-9.556-.1-13.846a41.781 41.781 0 0 0-1.17-11.9 31.712 31.712 0 0 0-1.853-4.875 30.856 30.856 0 0 0-2.34-4 28.759 28.759 0 0 0-4.973-5.558 33.4 33.4 0 0 0-3.8-2.828 6.239 6.239 0 0 0-1.073-.585l-.39-.2a1.067 1.067 0 0 0 .39.2 6.24 6.24 0 0 1 1.073.585 29.793 29.793 0 0 1 3.9 2.73 28.9 28.9 0 0 1 5.07 5.558 31.038 31.038 0 0 1 2.438 4 22.981 22.981 0 0 1 1.95 4.973 39.432 39.432 0 0 1 1.268 11.994c0 4.388-.39 8.971.1 13.846a26.911 26.911 0 0 0 1.755 7.216 17.276 17.276 0 0 0 4.1 6.436 14.511 14.511 0 0 0 3.12 2.34 16.922 16.922 0 0 0 3.705 1.365 21.031 21.031 0 0 0 8.191.1c5.558-.975 10.433-3.705 15.016-6.241s9.166-5.168 14.041-6.241a25.412 25.412 0 0 1 7.118-.585 19.185 19.185 0 0 1 3.413.585 12.345 12.345 0 0 1 3.12 1.268c4 1.95 5.851 6.143 9.263 7.606a5.345 5.345 0 0 0 4.875-.39 7.8 7.8 0 0 0 2.925-3.51 6.99 6.99 0 0 0 .488-3.9 12.571 12.571 0 0 0-.975-3.218 15.344 15.344 0 0 0-2.73-3.8l-.878-.878c-.103-.489-.201-.587-.201-.684z" fill="#263238"/></g><g data-name="Group 2489"><path data-name="Path 2964" d="M363.708 170.099a1.707 1.707 0 0 0-.1-.488 4.4 4.4 0 0 0-.292-1.268 11.219 11.219 0 0 0-2.438-4.388 18.71 18.71 0 0 0-6.436-4.485 45.105 45.105 0 0 0-10.141-2.633c-3.8-.78-8.191-1.56-12.091-4.193a17.988 17.988 0 0 1-2.828-27.4c4-4.1 9.751-6.241 14.431-9.848a15.2 15.2 0 0 0 3.023-3.12 13.093 13.093 0 0 0 1.853-3.9c.78-2.73.683-5.656.975-8.483a15.882 15.882 0 0 1 .78-4.193 9.417 9.417 0 0 1 2.048-3.608 14.386 14.386 0 0 1 7.021-3.9c2.535-.683 4.973-1.17 7.313-1.853a22.635 22.635 0 0 0 6.436-2.828 26.267 26.267 0 0 0 4.778-4.485 53.157 53.157 0 0 0 3.608-4.973c2.145-3.218 4-6.338 5.948-8.776a30.806 30.806 0 0 1 5.656-5.656 18.13 18.13 0 0 1 4.485-2.34 5.7 5.7 0 0 1 1.755-.39 10.532 10.532 0 0 0-1.658.488 17.855 17.855 0 0 0-4.388 2.34 27.862 27.862 0 0 0-5.558 5.656c-1.95 2.438-3.705 5.461-5.851 8.776a53.158 53.158 0 0 1-3.608 4.973 21.913 21.913 0 0 1-4.875 4.583 20.921 20.921 0 0 1-6.533 2.925c-2.34.683-4.875 1.17-7.313 1.853a13.347 13.347 0 0 0-6.728 3.8 8.844 8.844 0 0 0-1.95 3.51 25.424 25.424 0 0 0-.78 4.1c-.292 2.828-.2 5.753-.975 8.581a11.749 11.749 0 0 1-1.95 4 19.429 19.429 0 0 1-3.12 3.218 60.943 60.943 0 0 1-7.508 4.778 32.319 32.319 0 0 0-6.826 4.973 17.523 17.523 0 0 0 2.73 26.718c3.8 2.535 8.093 3.413 11.9 4.193s7.411 1.365 10.238 2.73a19.316 19.316 0 0 1 6.533 4.583 10.448 10.448 0 0 1 2.34 4.485 3.6 3.6 0 0 1 .2 1.268 4.077 4.077 0 0 0-.104.677z" fill="#263238"/></g><g data-name="Group 2490"><path data-name="Path 2965" d="M441.521 82.536a2.344 2.344 0 0 1-.78-.2 20.009 20.009 0 0 1-1.95-.78 25.446 25.446 0 0 1-5.851-3.8 25.989 25.989 0 0 1-4.583-5.168 14.074 14.074 0 0 1-1.073-1.853c-.2-.488-.292-.683-.292-.683.1 0 .585.878 1.658 2.34a26.867 26.867 0 0 0 4.68 4.973 28.614 28.614 0 0 0 5.656 3.8c1.56.884 2.535 1.274 2.535 1.371z" fill="#455a64"/></g><g data-name="Group 2491"><path data-name="Path 2966" d="M473.892 149.037a12.854 12.854 0 0 0-1.755-.39 35.116 35.116 0 0 0-4.778-.585 61.47 61.47 0 0 0-7.118.2 81.189 81.189 0 0 1-8.678.39 23.589 23.589 0 0 1-8.581-1.658 14.937 14.937 0 0 1-5.753-4.193 11.389 11.389 0 0 1-2.243-4.29 10.243 10.243 0 0 1-.2-1.268v-.492a13.35 13.35 0 0 1 .39 1.658 10.645 10.645 0 0 0 2.34 4.1 15.018 15.018 0 0 0 5.656 4 25.274 25.274 0 0 0 8.483 1.56 80.005 80.005 0 0 0 8.678-.39 59.208 59.208 0 0 1 7.118-.1 21.952 21.952 0 0 1 4.778.78c.585.2.975.293 1.268.39a2.884 2.884 0 0 1 .395.288z" fill="#455a64"/></g><g data-name="Group 2492"><path data-name="Path 2967" d="M531.424 193.403a.427.427 0 0 1-.293.1 4.531 4.531 0 0 1-.878.293 6.377 6.377 0 0 1-3.51-.2 11.907 11.907 0 0 1-4.68-2.925 19.9 19.9 0 0 1-3.8-6.338c-1.073-2.535-1.95-5.363-3.705-8a22.251 22.251 0 0 0-3.12-3.8 25.25 25.25 0 0 0-4.1-3.12c-6.143-3.705-14.139-5.168-22.427-4.68-8.288.39-15.992 2.048-23.207 2.535a46.023 46.023 0 0 1-18.917-1.95 26.174 26.174 0 0 1-10.824-6.826 8.091 8.091 0 0 1-1.268-1.56q-.585-.731-.878-1.17a8.991 8.991 0 0 1-.488-.78c-.1-.2-.2-.293-.1-.293a1.207 1.207 0 0 1 .2.293c.1.2.293.39.488.78a7.259 7.259 0 0 0 .878 1.17 9.36 9.36 0 0 0 1.365 1.463 27.171 27.171 0 0 0 10.824 6.631 45.647 45.647 0 0 0 18.819 1.853c7.118-.488 14.919-2.145 23.207-2.633s16.382 1.073 22.622 4.875a22.779 22.779 0 0 1 4.193 3.218 19.576 19.576 0 0 1 3.12 3.9c1.755 2.73 2.633 5.656 3.705 8.093a19.128 19.128 0 0 0 3.608 6.241 10.386 10.386 0 0 0 4.485 2.925 7.368 7.368 0 0 0 3.413.293c.879-.29 1.268-.485 1.268-.388z" fill="#455a64"/></g></g><g data-name="Group 2515"><g data-name="Group 2514"><g data-name="Group 2513"><g data-name="Group 2512"><g data-name="Group 2511"><g data-name="Group 2510"><g data-name="Group 2509"><g data-name="Group 2508"><g data-name="Group 2500"><g data-name="Group 2499"><g data-name="Group 2498"><g data-name="Group 2497"><g data-name="Group 2496"><g data-name="Group 2495"><g data-name="Group 2494"><path data-name="Path 2968" d="M378.042 82.536a7.243 7.243 0 0 0-7.411 6.436l-7.9 82.1c-1.365 11.506 13.749 36.273 26.132 37.639 12.481 1.365 13.749-4.68 15.309-15.6 2.73-18.234 3.608-25.157 3.608-25.06 0 0 16.089-.585 22.037-20.672 2.925-10.043 4.68-26.815 5.558-40.661.878-12.384-5.363-28.668-17.747-28.96z" fill="#ffbe9d"/></g></g></g></g></g></g></g><g data-name="Group 2507"><g data-name="Group 2506"><g data-name="Group 2505"><g data-name="Group 2504"><g data-name="Group 2503"><g data-name="Group 2502"><g data-name="Group 2501"><path data-name="Path 2969" d="M407.782 168.149a53.249 53.249 0 0 1-26.522-10.921s5.07 15.016 25.937 15.8z" fill="#eb996e"/></g></g></g></g></g></g></g></g></g></g></g></g></g></g></g><path data-name="Path 2970" d="M361.661 165.516c6.728-1.365 11.994-7.216 14.334-13.651 2.34-6.533 2.243-13.651 1.56-20.477a3.234 3.234 0 0 0-.975-2.438c-1.073-.78-2.535-.1-3.608.488a120.267 120.267 0 0 0-12.286 8.581c-3.608 2.925-7.216 6.241-8.581 10.726-2.145 6.826 2.34 14.919 9.263 16.772" fill="#263238"/><g data-name="Group 2523"><path data-name="Path 2971" d="M517.383 163.858L485.4 112.471l-8.873-18.039s-2.828-3.705-5.753-6.923c-4.778-5.265-9.556-1.17-9.556-1.17a3.14 3.14 0 0 0-3.218-1.95 5.252 5.252 0 0 0-4.388 2.243s-1.268-1.463-4.973-1.658a4.463 4.463 0 0 0-2.34.78c-1.17-1.073-3.413-2.535-5.461-1.755-1.658.585-11.6 8.191-14.041 11.994-1.17 1.853 1.073 4.29 4.1 3.218a21.284 21.284 0 0 0 3.608-1.464 9.451 9.451 0 0 0 2.438-1.95s-2.535 4.388 0 5.168a5.665 5.665 0 0 0 4.68-1.17c.975-.78 2.048-1.853 3.12-2.828 0 .1-.1.1-.1.2-1.365 2.048 2.243 5.07 4 3.8a24.519 24.519 0 0 0 2.34-1.853c4.1 2.925-1.56 6.728-4 6.533a69.133 69.133 0 0 0-11.019 0 8.175 8.175 0 0 0-5.07 1.853c-1.365 1.365.1 4.29 1.95 4.583 3.51.585 8 1.365 12.579 2.535 5.461 1.365 19.794 6.046 19.794 6.046l1.365 1.17 19.4 47.389-33.251 7.021-7.411 42.124 60.066-16.284c13.752-7.315 20.188-25.354 11.997-38.226z" fill="#ffbe9d"/><g data-name="Group 2516"><path data-name="Path 2972" d="M465.411 120.369a2.344 2.344 0 0 1-.78-.2 21.237 21.237 0 0 0-2.145-.585q-2.925-.878-7.9-2.34c-1.658-.488-3.51-1.073-5.461-1.658s-4.1-1.268-6.241-1.755a52.61 52.61 0 0 0-7.021-1.463 13.625 13.625 0 0 1-3.8-.683 5.357 5.357 0 0 1-.878-.683c-.1-.2-.2-.293-.293-.488l-.1-.488a4.848 4.848 0 0 1 .1-2.048 2.706 2.706 0 0 1 1.365-1.56c.585-.293 1.268-.488 1.853-.78a13.379 13.379 0 0 1 3.9-.488c2.535 0 4.875.39 7.216.293a18.236 18.236 0 0 0 3.315-.293c1.073-.2 2.048-.488 3.023-.683a16.634 16.634 0 0 1 5.656-.683 18.46 18.46 0 0 1 4.583 1.17 24.946 24.946 0 0 1 3.218 1.56c.878.488 1.463.878 1.95 1.17.39.293.683.39.683.488s-.293-.1-.683-.39c-.488-.293-1.17-.585-1.95-1.073a25.683 25.683 0 0 0-3.218-1.463 15.139 15.139 0 0 0-4.485-1.073 14.2 14.2 0 0 0-5.558.78 29.172 29.172 0 0 1-3.12.78c-1.073.2-2.243.293-3.413.39-2.34.1-4.778-.2-7.216-.293a11.73 11.73 0 0 0-3.705.488c-1.17.39-2.535.78-2.925 2.048a3.981 3.981 0 0 0-.1 1.853l.1.488c0 .1.1.2.2.293a1.749 1.749 0 0 0 .683.488c1.073.585 2.438.488 3.705.683a51 51 0 0 1 7.118 1.463c2.243.585 4.29 1.268 6.241 1.853s3.8 1.17 5.46 1.755c3.315 1.073 5.948 1.853 7.9 2.535.878.293 1.56.488 2.145.683.383-.188.578-.091.578-.091z" fill="#eb996e"/></g><g data-name="Group 2517"><path data-name="Path 2973" d="M440.838 83.999c.1.1-1.463.975-3.8 2.73a35.319 35.319 0 0 0-3.8 3.315c-1.365 1.365-2.828 2.925-4.485 4.29a4.279 4.279 0 0 0-1.755 2.438 1.391 1.391 0 0 0 .2 1.268 1.549 1.549 0 0 0 .975.78 5.625 5.625 0 0 0 2.535.1 15.071 15.071 0 0 0 2.243-.683 18.374 18.374 0 0 0 4-2.438 5.9 5.9 0 0 1-.878.878 11.712 11.712 0 0 1-2.925 1.853 8.222 8.222 0 0 1-2.34.683 5.555 5.555 0 0 1-2.828 0 2.5 2.5 0 0 1-1.268-.975 1.966 1.966 0 0 1-.2-1.658 5.471 5.471 0 0 1 1.95-2.73c1.658-1.463 3.12-2.925 4.485-4.29a25.95 25.95 0 0 1 3.9-3.218 19.386 19.386 0 0 1 2.925-1.853c.579-.295.969-.59 1.066-.49z" fill="#eb996e"/></g><g data-name="Group 2518"><path data-name="Path 2974" d="M453.027 87.995s-.39.488-1.17 1.365-1.853 2.048-3.218 3.51-3.023 3.218-4.778 5.168a10.083 10.083 0 0 1-3.413 2.535 5.877 5.877 0 0 1-2.243.585 3.254 3.254 0 0 1-2.243-.878 1.8 1.8 0 0 1-.488-1.17 5.56 5.56 0 0 1 .1-1.268 6.337 6.337 0 0 1 1.073-2.145c1.755-1.853 3.315-3.51 4.778-5.168 1.463-1.56 2.828-2.828 4-3.9a10.22 10.22 0 0 1 1.658-1.365 6.029 6.029 0 0 1 1.56-.39c.878-.1 1.365 0 1.365.1a11.327 11.327 0 0 0-1.268.1 4.684 4.684 0 0 0-1.463.39 9.131 9.131 0 0 0-1.56 1.365c-1.073 1.073-2.535 2.438-3.9 4s-3.023 3.315-4.68 5.168a7.309 7.309 0 0 0-.975 1.95 4 4 0 0 0-.1 1.073 2.919 2.919 0 0 0 .39.975 3.177 3.177 0 0 0 1.853.78 5.24 5.24 0 0 0 2.048-.488 10.041 10.041 0 0 0 3.218-2.438c1.853-1.95 3.51-3.608 4.875-5.07 1.365-1.365 2.438-2.535 3.315-3.413l.878-.878a1.078 1.078 0 0 1 .388-.493z" fill="#eb996e"/></g><g data-name="Group 2519"><path data-name="Path 2975" d="M467.946 92.676c.1 0 0 .293-.39.585a2.118 2.118 0 0 1-1.658.39 2.1 2.1 0 0 1-1.365-.878 1.684 1.684 0 0 1-.2-.683c.1 0 .2.195.487.488a2.34 2.34 0 0 0 1.17.683 2.144 2.144 0 0 0 1.365-.2c.298-.19.493-.385.591-.385z" fill="#eb996e"/></g><g data-name="Group 2520"><path data-name="Path 2976" d="M469.116 97.162c-.1.1-.878-.683-1.463-1.755-.683-1.073-.975-2.048-.78-2.145.1-.1.585.78 1.268 1.853a9.168 9.168 0 0 1 .975 2.047z" fill="#eb996e"/></g><g data-name="Group 2521"><path data-name="Path 2977" d="M471.261 114.616a4.922 4.922 0 0 1-.878-2.048 16 16 0 0 1-.78-5.363 14.9 14.9 0 0 1 .975-5.265 13.109 13.109 0 0 1 .975-2.048c.2.1-1.365 3.12-1.365 7.313-.195 4.193 1.268 7.411 1.073 7.411z" fill="#eb996e"/></g><g data-name="Group 2522"><path data-name="Path 2978" d="M497.487 182.19c-.1 0-.2-1.073-.683-2.633a19.951 19.951 0 0 0-1.17-2.633 17.762 17.762 0 0 0-2.048-2.925 19.992 19.992 0 0 0-2.633-2.438 9.881 9.881 0 0 0-2.535-1.463c-1.463-.683-2.535-.975-2.535-1.073a4.418 4.418 0 0 1 .78.1 13.266 13.266 0 0 1 1.95.585 12.227 12.227 0 0 1 2.633 1.463 20.467 20.467 0 0 1 2.73 2.438 13.792 13.792 0 0 1 2.048 3.023 12.772 12.772 0 0 1 1.073 2.828c.2.78.293 1.463.39 1.95s.1.778 0 .778z" fill="#eb996e"/></g></g><g data-name="Group 2529"><path data-name="Path 2979" d="M385.941 276.091a13.615 13.615 0 0 0-8.093 1.073c-4.388-1.95-9.653 1.365-9.653 1.365-1.56-.78-11.018 5.461-11.018 5.461l-11.8 5.558-62.893-46.707 17.844-18.527-24.964-26.035-29.253 30.13a22.755 22.755 0 0 0-5.847 14.139c-.78 11.409 5.753 22.135 15.992 27.3l74.108 38.031a87.671 87.671 0 0 0 16.869-2.633c6.436-1.658 17.357-6.533 17.357-6.533a27.4 27.4 0 0 0 1.95 4.1c3.51 6.826 8.678-.585 8.678-.585a13.007 13.007 0 0 0 2.046 3.311c4.485 4.29 7.508-1.463 7.508-1.463s1.365 2.34 5.363.585-.585-13.749-.585-13.749 1.365 2.633 3.9-.683c2.437-3.119-3.219-13.26-7.509-14.138z" fill="#ffbe9d"/><g data-name="Group 2524"><path data-name="Path 2980" d="M377.067 277.749a2.352 2.352 0 0 1 .78-.293 4.886 4.886 0 0 1 2.34.1 8.874 8.874 0 0 1 3.12 1.658 19.519 19.519 0 0 1 1.56 1.365 13.394 13.394 0 0 1 1.268 1.95 50.885 50.885 0 0 1 2.925 7.216c.293.975.488 1.755.585 2.243.1.585.2.878.1.878s-.39-1.17-1.073-3.023a69.215 69.215 0 0 0-3.023-7.118 7.418 7.418 0 0 0-1.17-1.853 18.715 18.715 0 0 0-1.463-1.365 10.039 10.039 0 0 0-2.925-1.658 5.833 5.833 0 0 0-3.024-.1z" fill="#eb996e"/></g><g data-name="Group 2525"><path data-name="Path 2981" d="M384.673 304.169s-.2-.39-.585-1.073a32.429 32.429 0 0 1-1.365-3.023c-1.17-2.535-2.828-5.948-4.485-9.946a30.5 30.5 0 0 0-2.534-5.358 8.718 8.718 0 0 0-3.608-3.023 5.777 5.777 0 0 0-3.12-.585 3.949 3.949 0 0 0-1.17.293 1.207 1.207 0 0 1 .293-.2 4.531 4.531 0 0 1 .878-.293 6.079 6.079 0 0 1 3.315.39 9.354 9.354 0 0 1 3.9 3.12 27.444 27.444 0 0 1 2.633 5.363c1.658 3.9 3.218 7.411 4.29 9.946.585 1.268.975 2.34 1.268 3.023.193.981.29 1.366.29 1.366z" fill="#eb996e"/></g><g data-name="Group 2526"><path data-name="Path 2982" d="M355.81 289.157a10.149 10.149 0 0 0 .975-.585c.78-.39 1.658-.78 2.828-1.365.585-.293 1.268-.585 1.95-.878a5.553 5.553 0 0 1 2.535-.39 5.44 5.44 0 0 1 2.633.975 9.234 9.234 0 0 1 1.95 2.34c.488.878.975 1.755 1.365 2.633s.878 1.658 1.268 2.438c.878 1.56 1.658 2.828 2.243 4.1.585 1.17.975 2.145 1.268 2.828s.39 1.073.292 1.073-.585-1.56-1.853-3.8c-.585-1.17-1.463-2.438-2.34-4-.39-.78-.878-1.56-1.268-2.438a20.949 20.949 0 0 0-1.365-2.535 6.5 6.5 0 0 0-1.755-2.145 4.475 4.475 0 0 0-2.438-.975 4.719 4.719 0 0 0-2.34.293c-.683.293-1.365.585-1.95.878q-1.755.731-2.925 1.17a7.962 7.962 0 0 1-1.073.383z" fill="#eb996e"/></g><g data-name="Group 2527"><path data-name="Path 2983" d="M357.176 283.99l-.878.585c-.585.293-1.365.78-2.438 1.268a1455.542 1455.542 0 0 1-8.093 4.193c-3.218 1.56-6.046 3.023-8.191 4-1.073.488-1.95.878-2.535 1.17a5.32 5.32 0 0 1-.975.39l.878-.585c.585-.292 1.365-.78 2.438-1.268 2.048-1.073 4.973-2.535 8.093-4.193 3.218-1.56 6.046-3.023 8.191-4 1.073-.488 1.95-.878 2.535-1.17s.877-.49.975-.39z" fill="#eb996e"/></g><g data-name="Group 2528"><path data-name="Path 2984" d="M283.263 242.841c0 .2-3.315-.78-7.411-.2-4.1.488-7.118 2.145-7.216 1.95a7.192 7.192 0 0 1 1.95-1.073 16.494 16.494 0 0 1 5.168-1.365 19.112 19.112 0 0 1 5.363.1 16.711 16.711 0 0 1 2.146.588z" fill="#eb996e"/></g></g><g data-name="Group 2533"><path data-name="Path 2985" d="M422.21 73.955a199.361 199.361 0 0 0-46.317 4.875c-3.51.78-7.216 1.853-9.653 4.583-2.535 2.828-2.925 6.923-3.315 10.726-.39 4.68-.78 9.263-1.17 13.846a39.47 39.47 0 0 1-2.243 3.315c-3.705 4.778-8.288 8.776-11.7 13.846-3.315 5.07-5.168 11.7-2.438 17.064 1.658 3.218 4.68 5.558 6.923 8.483 3.8 4.875 4.973 11.214 7.216 16.967s6.143 11.7 12.286 12.871c2.925.585 5.948-.1 8.776.39 4.388.683 8 3.51 11.506 6.241s7.216 5.461 11.6 5.948c4.388.39 9.361-2.535 9.458-6.923a10.39 10.39 0 0 1-10.629-.293c-2.535-1.658-4.193-4.388-6.436-6.533-5.363-5.266-14.041-6.923-17.844-13.359-2.925-5.168-1.755-11.6-.488-17.357 1.17-4.973 2.34-10.433.878-15.309a18.936 18.936 0 0 0 .2-2.34c0-5.168-1.95-10.628.39-15.211 3.12-6.046 12.286-6.728 15.5-12.774 1.853-3.51 1.17-7.9 3.218-11.311 1.95-3.218 5.753-4.68 9.361-5.461s7.411-1.17 10.629-3.023c3.418-1.851 5.758-5.849 4.292-9.261z" fill="#263238"/><g data-name="Group 2530"><path data-name="Path 2986" d="M434.012 178.582s0 .1-.2.195c-.1.2-.293.39-.488.683a11.891 11.891 0 0 1-2.243 2.243 12.835 12.835 0 0 1-4.485 2.34 14.487 14.487 0 0 1-6.631.78 14.136 14.136 0 0 1-7.508-3.023c-2.34-1.755-4.388-4.193-7.021-6.046a10.212 10.212 0 0 0-4.479-1.854 9.993 9.993 0 0 0-4.973.878 23.065 23.065 0 0 1-5.168 1.755 9.3 9.3 0 0 1-5.558-.975 26.076 26.076 0 0 1-4.68-3.12 36.13 36.13 0 0 1-4.1-3.608 11.967 11.967 0 0 1-2.925-4.388 8.229 8.229 0 0 1-.293-5.07 22.88 22.88 0 0 1 1.463-4.583 43.232 43.232 0 0 0 1.463-4.193 42.1 42.1 0 0 0 1.755-7.8 51.1 51.1 0 0 0 .585-11.6c-.1-1.365-.2-2.438-.2-3.12 0-.293-.1-.585-.1-.78V127a.754.754 0 0 0 .1.293c0 .2.1.488.1.78.1.683.2 1.755.293 3.12a50.824 50.824 0 0 1-.488 11.7 55.717 55.717 0 0 1-1.755 7.9 44.715 44.715 0 0 1-1.463 4.29 24.119 24.119 0 0 0-1.463 4.485 8.884 8.884 0 0 0 .293 4.778 12.257 12.257 0 0 0 2.828 4.193 43.375 43.375 0 0 0 8.678 6.533 9.113 9.113 0 0 0 5.265.975 24.039 24.039 0 0 0 5.07-1.755 9.551 9.551 0 0 1 5.168-.878 10.012 10.012 0 0 1 4.68 1.95c2.633 1.95 4.68 4.29 7.021 6.046a12.994 12.994 0 0 0 7.216 3.023 15.533 15.533 0 0 0 6.533-.683 15.282 15.282 0 0 0 4.388-2.243 11.26 11.26 0 0 0 3.322-2.925z" fill="#263238"/></g><g data-name="Group 2531"><path data-name="Path 2987" d="M336.601 147.574s-.293-.39-.78-1.073a10.1 10.1 0 0 1-1.365-3.51 14.124 14.124 0 0 1 .1-6.046 17.391 17.391 0 0 1 3.413-7.216 32.863 32.863 0 0 1 7.021-6.631c2.828-2.048 5.948-4 9.166-6.241a33.655 33.655 0 0 0 8.678-8.386 19.908 19.908 0 0 0 2.633-5.851c.585-2.048 1.073-4.29 1.56-6.436a35.148 35.148 0 0 1 1.95-6.436 13.818 13.818 0 0 1 3.8-5.265 16.324 16.324 0 0 1 5.558-3.023 25.693 25.693 0 0 1 5.948-1.17 68.573 68.573 0 0 1 11.116.39 45.906 45.906 0 0 0 9.653.1 20.613 20.613 0 0 0 7.508-2.243 14.058 14.058 0 0 0 4.583-3.705 10.418 10.418 0 0 0 1.853-3.218 9.113 9.113 0 0 0 .39-1.268s-.1.488-.293 1.268a9.694 9.694 0 0 1-1.853 3.315 12.646 12.646 0 0 1-4.68 3.8 19.393 19.393 0 0 1-7.606 2.34 45.907 45.907 0 0 1-9.653-.1c-3.51-.2-7.216-.683-11.019-.293a24.907 24.907 0 0 0-5.851 1.17 13.989 13.989 0 0 0-9.068 8.101 32.022 32.022 0 0 0-1.95 6.338c-.488 2.145-.975 4.388-1.56 6.533a20.687 20.687 0 0 1-2.73 5.948c-2.34 3.608-5.656 6.241-8.776 8.581-3.218 2.243-6.338 4.193-9.166 6.241a35.012 35.012 0 0 0-7.021 6.533 18.339 18.339 0 0 0-3.413 7.118 15.577 15.577 0 0 0-.2 5.948 13.944 13.944 0 0 0 2.054 4.387z" fill="#455a64"/></g><g data-name="Group 2532"><path data-name="Path 2988" d="M339.527 152.645a27.549 27.549 0 0 1-3.023-2.828 13.5 13.5 0 0 1-2.633-4.1 7.581 7.581 0 0 1-.488-3.023 6.978 6.978 0 0 1 1.268-3.218c1.56-1.95 4.193-3.023 6.923-3.51 1.365-.293 2.828-.488 4.29-.878a13.215 13.215 0 0 0 4.193-1.755 9.99 9.99 0 0 0 3.023-3.608 33.419 33.419 0 0 0 1.853-4.68 42.354 42.354 0 0 1 1.95-4.875 10.571 10.571 0 0 1 3.705-4.1 16.084 16.084 0 0 1 5.07-1.95c1.755-.488 3.413-.78 5.07-1.365a15.689 15.689 0 0 0 7.7-5.656 53.544 53.544 0 0 0 4.778-7.508 42.333 42.333 0 0 1 4.388-6.533 17.067 17.067 0 0 1 4.973-4.1 11.936 11.936 0 0 1 4.68-1.365 9.068 9.068 0 0 1 3.12.293 3.807 3.807 0 0 1 .975.39s-.39-.1-1.073-.293a9.162 9.162 0 0 0-3.023-.2 14.493 14.493 0 0 0-4.583 1.463 16.78 16.78 0 0 0-4.875 4.1 41 41 0 0 0-4.29 6.436 60.644 60.644 0 0 1-4.778 7.606 23.177 23.177 0 0 1-3.413 3.51 14.246 14.246 0 0 1-4.485 2.438 48.842 48.842 0 0 1-5.07 1.365 19.519 19.519 0 0 0-4.973 1.95 10.381 10.381 0 0 0-3.51 3.9 49.2 49.2 0 0 0-1.95 4.778 24.9 24.9 0 0 1-1.95 4.68 9.88 9.88 0 0 1-3.218 3.705 12.486 12.486 0 0 1-4.29 1.755c-1.463.39-2.925.585-4.29.878-2.73.585-5.266 1.56-6.728 3.413a5.938 5.938 0 0 0-1.268 3.023 7.108 7.108 0 0 0 .39 2.925 13.423 13.423 0 0 0 2.535 4.1c.878.975 1.56 1.755 2.048 2.243l.585.585z" fill="#455a64"/></g></g></g><g data-name="Group 2535"><path data-name="Path 2989" d="M459.56 89.654s-.2.293-.488.78c-.39.488-.878 1.17-1.56 1.95-1.365 1.56-3.218 3.705-5.46 5.948-1.073 1.073-2.145 2.34-3.608 2.73a3.652 3.652 0 0 1-2.048 0 4.108 4.108 0 0 1-1.365-1.17 4.959 4.959 0 0 1-.39-2.438 6.423 6.423 0 0 1 .2-.878v.878a4.082 4.082 0 0 0 .488 2.243 2.866 2.866 0 0 0 1.17.975 2.7 2.7 0 0 0 1.755 0c1.268-.39 2.243-1.56 3.413-2.633 2.243-2.243 4.193-4.388 5.558-5.851a25.385 25.385 0 0 1 2.335-2.534z" fill="#eb996e"/></g><g data-name="Group 2536"><path data-name="Path 2990" d="M466.971 89.752s-.2.293-.585.78a23.926 23.926 0 0 1-1.755 1.95c-.78.878-1.658 1.755-2.633 2.828-.488.488-.975 1.073-1.56 1.658a14.989 14.989 0 0 1-1.853 1.658 5.463 5.463 0 0 1-2.34.975 2.452 2.452 0 0 1-2.243-.975 2.389 2.389 0 0 1-.39-1.17 3.458 3.458 0 0 1 .293-1.073 9.489 9.489 0 0 1 1.073-1.463c.683-.878 1.17-1.56 1.56-2.048s.585-.78.585-.683a4.311 4.311 0 0 1-.488.878 21.392 21.392 0 0 1-1.463 2.145c-.293.488-.683.975-.975 1.463a1.47 1.47 0 0 0 0 1.658 2.283 2.283 0 0 0 1.755.78 5.017 5.017 0 0 0 2.145-.878 9.519 9.519 0 0 0 1.755-1.658c.585-.585 1.073-1.073 1.56-1.658.975-.975 1.853-1.95 2.73-2.73l1.853-1.853c.488-.484.976-.684.976-.584z" fill="#eb996e"/></g></g><g><g data-name="Group 2544"><g data-name="Group 2541"><g data-name="Group 2540"><g data-name="Group 2539"><path data-name="Path 2991" d="M447.372 71.907l7.8-14.139a37.572 37.572 0 1 1 32.178 17.649 37.99 37.99 0 0 1-23.11-7.606z" fill="#fff"/><g data-name="Group 2538"><path data-name="Path 2992" d="M447.372 71.907c.878-.2 6.143-1.56 16.967-4.29l-.1.2-.585-.78.78.585a36.381 36.381 0 0 0 7.7 4.485 35.828 35.828 0 0 0 10.239 2.73 29.854 29.854 0 0 0 5.948.2c.975-.1 2.048-.1 3.12-.2 1.073-.2 2.048-.293 3.12-.488a37.873 37.873 0 0 0 12.481-5.07 37.435 37.435 0 0 0 10.63-10.146 36.816 36.816 0 0 0 6.143-14.431 37.709 37.709 0 0 0-.585-16.479 36.6 36.6 0 0 0-8.093-15.211l-1.56-1.658c-.488-.585-1.073-.975-1.658-1.56-.585-.488-1.073-1.073-1.658-1.463l-1.755-1.268a9.726 9.726 0 0 0-1.853-1.17l-1.853-1.17a12.131 12.131 0 0 1-1.95-.975 17.156 17.156 0 0 0-1.95-.878A39.464 39.464 0 0 0 484.226.432a36.558 36.558 0 0 0-15.211 4.68 37.531 37.531 0 0 0-11.214 9.751 38.671 38.671 0 0 0-6.241 12.091A41.217 41.217 0 0 0 450 39.045a37.514 37.514 0 0 0 5.656 18.527v.2c-5.461 9.068-7.9 13.359-8.288 14.139.39-.78 2.828-5.168 7.7-14.139v.1a37.568 37.568 0 0 1-5.746-18.628 39.373 39.373 0 0 1 1.56-12.286 38.339 38.339 0 0 1 17.649-22.135A36.024 36.024 0 0 1 483.938.144a37.451 37.451 0 0 1 16.869 2.438 18.474 18.474 0 0 1 2.048.878 19.481 19.481 0 0 1 2.048.975l1.95 1.17c.683.39 1.268.78 1.853 1.17l1.853 1.365c.585.39 1.17.975 1.755 1.463a12.556 12.556 0 0 1 1.658 1.556l1.56 1.658a36.924 36.924 0 0 1 8.191 15.406 37.572 37.572 0 0 1 .585 16.772 37.008 37.008 0 0 1-6.241 14.626 37.684 37.684 0 0 1-23.3 15.309c-1.073.2-2.145.39-3.218.488s-2.048.1-3.12.2a30.049 30.049 0 0 1-5.948-.293 40.065 40.065 0 0 1-10.336-2.828 39.194 39.194 0 0 1-7.8-4.583l.2-.2.1.2h-.2c-10.93 2.53-16.195 3.798-17.073 3.993z" fill="#141e5d"/></g></g></g></g><g data-name="Group 2543"><g data-name="Group 2542" fill="#141e5d"><path data-name="Path 2993" d="M476.625 31.343h4.875a4.153 4.153 0 0 1 4.193-4.193 3.905 3.905 0 0 1 3.9 2.535 4.473 4.473 0 0 1-.293 4c-.78 1.365-2.633 2.633-5.948 2.048l.1 11.019h4.873l-.1-6.436a9.569 9.569 0 0 0 6.728-9.263c-.1-7.118-6.533-8.776-9.263-8.678-2.142-.202-9.265.387-9.065 8.968z"/><path data-name="Rectangle 983" d="M483.453 48.922l4.875-.047.044 4.583-4.875.047z"/></g></g></g></g></g></svg>